<?xml version="1.0" standalone="no"?>
<!DOCTYPE svg PUBLIC "-//W3C//DTD SVG 20010904//EN"
 "http://www.w3.org/TR/2001/REC-SVG-20010904/DTD/svg10.dtd">
<svg version="1.0" xmlns="http://www.w3.org/2000/svg"
 width="256.000000pt" height="256.000000pt" viewBox="0 0 256.000000 256.000000"
 preserveAspectRatio="xMidYMid meet">
<metadata>
Created by potrace 1.11, written by Peter Selinger 2001-2013
</metadata>
<g transform="translate(0.000000,256.000000) scale(0.100000,-0.100000)"
fill="#000000" stroke="none">
<path d="M1085 2240 c-87 -14 -227 -56 -288 -86 -267 -135 -409 -398 -395
-731 4 -90 11 -126 41 -214 35 -104 35 -108 21 -154 -35 -117 -7 -234 73 -306
42 -38 135 -79 179 -79 l26 0 -7 -89 c-9 -109 -2 -150 30 -185 19 -21 33 -26
71 -26 37 0 53 -6 80 -30 36 -32 86 -45 137 -37 20 3 38 -1 49 -10 29 -25 86
-33 136 -18 40 12 52 12 87 0 46 -15 104 -7 133 18 11 9 29 13 49 10 51 -8
101 5 137 37 27 24 43 30 80 30 38 0 52 5 71 26 32 35 39 76 31 183 l-7 88 45
6 c100 14 209 100 234 185 16 53 15 139 -2 197 -14 46 -14 50 21 154 60 178
58 375 -8 554 -86 238 -254 383 -524 453 -84 22 -127 27 -270 29 -93 2 -197 0
-230 -5z m480 -109 c324 -85 506 -323 505 -660 -1 -122 -8 -165 -52 -279 l-31
-83 18 -57 c22 -70 22 -149 0 -191 -32 -63 -131 -111 -230 -111 -50 0 -58 -23
-45 -116 16 -116 14 -174 -7 -174 -9 0 -25 7 -35 17 -15 13 -23 14 -43 5 -14
-6 -25 -19 -25 -27 0 -25 -46 -65 -75 -65 -14 0 -39 7 -56 15 -28 15 -30 15
-65 -21 -30 -29 -41 -34 -63 -29 -14 4 -33 13 -42 21 -22 20 -56 17 -86 -6
-36 -28 -57 -25 -98 15 -34 35 -36 35 -64 20 -17 -8 -42 -15 -56 -15 -29 0
-75 40 -75 65 0 8 -11 21 -25 27 -20 9 -28 8 -43 -5 -10 -10 -26 -17 -35 -17
-21 0 -23 58 -7 174 15 102 9 111 -74 119 -177 17 -252 128 -201 298 l18 59
-31 82 c-44 114 -51 157 -52 279 -1 363 205 605 573 675 111 21 399 12 502
-15z"/>
<path d="M860 1555 c-166 -53 -223 -260 -107 -392 143 -163 417 -61 418 155 1
70 -20 125 -64 170 -65 68 -162 94 -247 67z"/>
<path d="M1575 1561 c-72 -18 -142 -77 -169 -143 -9 -21 -16 -64 -16 -96 0
-261 351 -332 459 -92 58 129 -15 284 -153 325 -53 16 -74 17 -121 6z"/>
<path d="M1238 1083 c-9 -10 -43 -80 -77 -155 -66 -146 -69 -166 -25 -194 21
-15 28 -15 71 0 25 9 58 16 73 16 15 0 48 -7 73 -16 43 -15 50 -15 71 0 44 28
41 48 -25 194 -70 155 -81 172 -119 172 -15 0 -34 -8 -42 -17z"/>
</g>
</svg>
