<?xml version="1.0" standalone="no"?>
<!DOCTYPE svg PUBLIC "-//W3C//DTD SVG 20010904//EN"
 "http://www.w3.org/TR/2001/REC-SVG-20010904/DTD/svg10.dtd">
<svg version="1.0" xmlns="http://www.w3.org/2000/svg"
 width="228.000000pt" height="228.000000pt" viewBox="0 0 228.000000 228.000000"
 preserveAspectRatio="xMidYMid meet">
<metadata>
Created by potrace 1.11, written by Peter Selinger 2001-2013
</metadata>
<g transform="translate(0.000000,228.000000) scale(0.100000,-0.100000)"
fill="#000000" stroke="none">
<path d="M0 1140 l0 -1140 1140 0 1140 0 0 1140 0 1140 -1140 0 -1140 0 0
-1140z m820 234 c0 -571 1 -584 49 -659 92 -140 380 -148 483 -13 51 66 51 76
55 661 l4 548 131 -3 130 -3 -1 -551 c-2 -415 -5 -563 -15 -600 -44 -165 -158
-287 -324 -345 -39 -14 -95 -22 -179 -26 -131 -6 -217 5 -290 38 -23 10 -45
19 -48 19 -11 0 -109 77 -136 106 -42 46 -76 106 -100 180 -23 68 -23 77 -27
612 -2 299 -1 550 2 558 4 11 33 14 136 14 l130 0 0 -536z"/>
</g>
</svg>
